<svg width="305" height="211" viewBox="0 0 305 211" fill="none" xmlns="http://www.w3.org/2000/svg">
<g clip-path="url(#clip0_3_116)">
<path d="M206.122 43.0588L172.257 25.4019L201.864 34.6165C202.035 34.6701 202.218 34.7023 202.389 34.7023C203.108 34.7023 203.709 34.6272 203.934 33.9085C204.224 33.0182 203.644 32.4174 202.754 32.1278L173.319 22.173L193.132 25.005C193.217 25.0157 193.314 25.0264 193.4 25.0264C194.226 25.0264 194.912 24.7261 195.041 23.8893C195.191 22.9561 194.558 22.4626 193.636 22.3232L170.476 18.2898C163.439 17.3458 156.606 22.2159 153.806 28.1051C153.709 28.3089 153.323 29.1886 152.229 29.21C151.135 29.1886 150.749 28.3089 150.652 28.1051C147.852 22.2266 141.019 17.3458 133.982 18.2898L110.822 22.3232C109.889 22.4734 109.267 22.9668 109.417 23.8893C109.546 24.7261 110.232 25.0264 111.058 25.0264C111.144 25.0264 111.241 25.0264 111.326 25.005L131.139 22.173L101.704 32.1278C100.814 32.4174 100.224 33.0182 100.524 33.9085C100.76 34.6272 101.35 34.7023 102.069 34.7023C102.241 34.7023 102.423 34.6701 102.595 34.6165L132.201 25.4019L98.3358 43.0588C97.4991 43.4879 97.0486 44.1637 97.4133 45.0326C97.7673 45.8693 98.7971 45.8371 99.6016 45.5153L133.735 28.4269L99.2262 53.9254C98.4646 54.4725 98.1535 55.2234 98.7006 55.985C99.2262 56.7252 100.256 56.5964 100.953 56.0708L135.741 31.1731L103.024 64.4273C102.359 65.0923 102.23 65.9827 102.895 66.637C103.528 67.2699 104.482 66.798 105.051 66.2723L138.219 33.5116L108.838 74.5751C108.28 75.3368 108.205 76.0984 108.945 76.6669C109.535 77.1175 110.49 76.6884 111.048 75.9589L140.74 35.8287L116.572 84.1545C116.143 84.9912 116.143 85.8386 116.969 86.2785C117.623 86.6325 118.481 86.1712 118.953 85.2808L143.991 36.9657L125.958 93.8089C125.669 94.6993 125.765 95.5145 126.656 95.8363C127.449 96.126 128.147 95.4609 128.436 94.5384L147.166 38.1994L137.125 103.699C136.975 104.633 137.286 105.48 138.219 105.62C138.305 105.63 138.402 105.641 138.488 105.641C139.314 105.641 139.668 104.901 139.807 104.064L150.502 38.9717C150.502 38.9717 150.523 38.843 150.577 38.6177V38.725L150.995 115.295C150.995 116.239 151.339 116.958 152.283 116.958C153.227 116.958 153.538 116.229 153.538 115.295L153.978 38.961L164.673 104.053C164.801 104.89 165.166 105.63 165.992 105.63C166.078 105.63 166.174 105.63 166.26 105.609C167.193 105.459 167.494 104.611 167.354 103.689L157.314 38.1886L176.043 94.5276C176.344 95.4502 177.03 96.1153 177.824 95.8256C178.704 95.5038 178.811 94.6993 178.521 93.7982L160.489 36.955L185.526 85.2701C185.987 86.1605 186.846 86.6217 187.511 86.2677C188.337 85.8279 188.337 84.9805 187.908 84.1438L163.739 35.8179L193.432 75.9482C193.99 76.6777 194.955 77.1067 195.535 76.6562C196.275 76.0877 196.2 75.326 195.642 74.5644L166.26 33.5009L199.429 66.2616C200.008 66.798 200.952 67.2592 201.585 66.6263C202.25 65.9612 202.121 65.0816 201.456 64.4165L168.738 31.1624L203.526 56.0601C204.224 56.5857 205.253 56.7144 205.779 55.9743C206.326 55.2019 206.015 54.4617 205.253 53.9146L170.744 28.4162L204.878 45.5046C205.682 45.8264 206.702 45.8586 207.066 45.0218C207.431 44.1529 206.991 43.4771 206.144 43.048L206.122 43.0588Z" fill="url(#paint0_radial_3_116)"/>
<path d="M163.063 10.4912C158.504 8.86063 154.954 5.30994 153.323 0.750901C153.162 0.30036 152.733 0 152.25 0C151.768 0 151.349 0.30036 151.178 0.750901C149.547 5.30994 145.996 8.86063 141.437 10.4912C140.987 10.6521 140.687 11.0811 140.687 11.5639C140.687 12.0466 140.987 12.4649 141.437 12.6366C145.996 14.2671 149.547 17.8178 151.178 22.3768C151.339 22.8274 151.768 23.1277 152.25 23.1277C152.733 23.1277 153.151 22.8274 153.323 22.3768C154.954 17.8178 158.504 14.2671 163.063 12.6366C163.514 12.4757 163.814 12.0466 163.814 11.5639C163.814 11.0811 163.514 10.6628 163.063 10.4912Z" fill="#FFA028"/>
<path d="M55.1269 178.918C45.6762 178.918 37.9956 171.227 37.9956 161.787C37.9956 152.347 45.687 144.656 55.1269 144.656C64.5668 144.656 72.2581 152.347 72.2581 161.787C72.2581 171.227 64.5668 178.918 55.1269 178.918ZM55.1269 148.721C47.9182 148.721 42.0612 154.578 42.0612 161.787C42.0612 168.995 47.9182 174.853 55.1269 174.853C62.3355 174.853 68.1925 168.995 68.1925 161.787C68.1925 154.578 62.3355 148.721 55.1269 148.721Z" fill="#FF4469"/>
<path d="M209.158 178.918C199.707 178.918 192.027 171.227 192.027 161.787C192.027 152.347 199.718 144.656 209.158 144.656C218.598 144.656 226.289 152.347 226.289 161.787C226.289 171.227 218.598 178.918 209.158 178.918ZM209.158 148.721C201.949 148.721 196.092 154.578 196.092 161.787C196.092 168.995 201.949 174.853 209.158 174.853C216.367 174.853 222.224 168.995 222.224 161.787C222.224 154.578 216.367 148.721 209.158 148.721Z" fill="#FF4469"/>
<path d="M19.7273 145.986C20.446 145.728 21.1111 145.299 21.4973 145.031C25.3268 142.446 28.1695 138.359 29.8215 133.886C29.8215 133.886 29.8215 133.875 29.8215 133.864C29.8322 133.832 29.843 133.81 29.8537 133.778C29.8966 133.66 29.8859 133.542 29.9073 133.424C29.9288 133.306 29.9717 133.199 29.9717 133.081C29.9717 133.06 29.9717 133.049 29.9717 133.027C29.9717 132.866 29.9181 132.727 29.8859 132.577C29.8537 132.47 29.8537 132.352 29.8001 132.255C29.7464 132.137 29.6606 132.04 29.5855 131.933C29.5104 131.826 29.4568 131.708 29.3603 131.622C29.2852 131.547 29.1779 131.493 29.0813 131.429C28.9526 131.343 28.8346 131.247 28.6952 131.193C28.6737 131.193 28.663 131.172 28.6523 131.172C28.5343 131.129 28.4163 131.139 28.309 131.118C28.191 131.096 28.0837 131.043 27.9657 131.043H5.29925C4.1729 131.043 3.26109 131.955 3.26109 133.081C3.26109 134.207 4.1729 135.119 5.29925 135.119H24.8012C21.4865 141.137 15.2433 145.192 7.56268 145.192C6.43633 145.192 5.52452 146.104 5.52452 147.23C5.52452 148.356 6.43633 149.268 7.56268 149.268C7.56268 149.268 7.57341 149.268 7.58414 149.268H15.1146C22.3232 149.268 28.1803 154.578 28.1803 161.776C28.1803 168.974 22.3232 174.842 15.1146 174.842C10.4697 174.842 6.13597 172.342 3.79745 168.32C3.22891 167.344 1.98456 167.011 1.01912 167.58C0.0429491 168.148 -0.289592 169.392 0.278946 170.358C3.33618 175.636 9.02157 178.918 15.1146 178.918C24.5652 178.918 32.2459 171.227 32.2459 161.787C32.2459 154.128 27.0432 148.088 19.7273 145.986Z" fill="#FF4469"/>
<path d="M249.181 145.342H246.059C249.664 142.639 253.096 138.08 254.373 133.66C254.405 133.564 254.373 133.467 254.394 133.371C254.405 133.274 254.448 133.188 254.448 133.092C254.448 133.049 254.427 133.017 254.427 132.974C254.427 132.834 254.384 132.695 254.341 132.566C254.309 132.448 254.276 132.319 254.223 132.212C254.169 132.094 254.083 131.998 254.008 131.89C253.933 131.783 253.858 131.676 253.762 131.59C253.665 131.504 253.558 131.45 253.45 131.386C253.332 131.311 253.214 131.236 253.075 131.193C253.032 131.182 253.011 131.15 252.968 131.139C252.871 131.107 252.775 131.139 252.678 131.118C252.582 131.107 252.496 131.064 252.399 131.064H234.281C234.281 131.064 234.206 131.086 234.174 131.086C234.131 131.086 234.099 131.064 234.066 131.064C232.94 131.064 232.028 131.976 232.028 133.102V161.798C232.028 171.248 239.72 178.929 249.16 178.929C258.599 178.929 266.291 171.237 266.291 161.798C266.291 152.358 258.599 145.353 249.16 145.353L249.181 145.342ZM236.115 145.6V135.13H249.46C246.896 140.375 241.64 145.16 236.115 145.6ZM249.181 174.853C241.972 174.853 236.115 168.995 236.115 161.787V149.418H249.181C256.39 149.418 262.247 154.589 262.247 161.787C262.247 168.985 256.39 174.853 249.181 174.853Z" fill="#FF4469"/>
<path d="M95.1498 144.645C85.6992 144.645 78.0186 152.336 78.0186 161.776V190.729C78.0186 191.855 78.9304 192.767 80.0567 192.767C81.1831 192.767 82.0949 191.855 82.0949 190.729V172.836C85.2379 176.547 89.9257 178.907 95.1605 178.907C104.611 178.907 112.292 171.216 112.292 161.776C112.292 152.336 104.6 144.645 95.1605 144.645H95.1498ZM95.1498 174.852C87.9412 174.852 82.0841 168.995 82.0841 161.787C82.0841 154.578 87.9412 148.721 95.1498 148.721C102.358 148.721 108.215 154.578 108.215 161.787C108.215 168.995 102.358 174.852 95.1498 174.852Z" fill="#FF4469"/>
<path d="M149.772 167.579C148.796 167.022 147.552 167.354 146.994 168.32C144.731 172.224 139.979 174.852 135.162 174.852C130.346 174.852 126.494 172.439 124.167 168.824C129.058 168.352 133.564 166.807 137.361 164.243C141.909 161.175 145.331 156.734 147.273 151.403C147.573 150.588 147.305 149.719 146.694 149.182C146.629 149.097 146.586 149 146.501 148.925C143.368 146.157 139.346 144.645 135.162 144.645C125.711 144.645 118.031 152.336 118.031 161.776C118.031 163.868 118.428 165.863 119.114 167.719C119.114 167.73 119.114 167.74 119.125 167.751C121.56 174.263 127.825 178.907 135.162 178.907C141.48 178.907 147.509 175.55 150.513 170.336C151.07 169.36 150.738 168.116 149.772 167.558V167.579ZM135.162 148.721C137.973 148.721 140.687 149.622 142.928 151.285C139.442 159.427 131.944 164.404 122.483 164.876C122.236 163.889 122.096 162.86 122.096 161.787C122.096 154.578 127.953 148.721 135.162 148.721Z" fill="#FF4469"/>
<path d="M302.034 144.645C300.907 144.645 299.995 145.557 299.995 146.683C299.995 168.963 288.743 174.852 282.8 174.852C278.37 174.852 276.128 172.493 276.128 167.826V146.683C276.128 145.557 275.216 144.645 274.089 144.645C272.963 144.645 272.051 145.557 272.051 146.683V167.826C272.051 174.777 276.063 178.918 282.789 178.918C287.938 178.918 293.076 176.236 296.885 171.559C298.054 170.122 299.094 168.502 299.985 166.711V176.88C299.985 178.006 300.897 178.918 302.023 178.918C303.149 178.918 304.061 178.006 304.061 176.88V146.683C304.061 145.557 303.149 144.645 302.023 144.645H302.034Z" fill="#FF4469"/>
<path d="M184.239 145.278H163.096C161.969 145.278 161.057 146.19 161.057 147.316C161.057 148.442 161.969 149.354 163.096 149.354H169.553C169.253 160.21 166.625 165.799 164.383 169.156C163.492 170.497 160.253 174.853 156.005 174.853C151.757 174.853 151.264 169.36 151.231 169.135C151.124 168.019 150.126 167.204 149 167.311C147.884 167.419 147.069 168.416 147.176 169.543C147.498 172.793 149.762 178.929 155.994 178.929C160.221 178.929 164.619 176.118 167.751 171.42C171.345 166.035 173.329 158.837 173.576 149.365H182.179V176.901C182.179 178.028 183.091 178.94 184.217 178.94C185.344 178.94 186.255 178.028 186.255 176.901V147.337C186.255 146.211 185.344 145.299 184.217 145.299L184.239 145.278Z" fill="#FF4469"/>
<path d="M37.1911 198.12C37.8133 198.517 38.296 199.085 38.6392 199.804C38.9825 200.523 39.1541 201.359 39.1541 202.314C39.1541 203.269 38.9825 204.073 38.65 204.781C38.3174 205.489 37.8347 206.047 37.2125 206.433C36.5904 206.819 35.8824 207.013 35.0886 207.013C34.402 207.013 33.7906 206.862 33.2649 206.573C32.7393 206.283 32.3424 205.854 32.0635 205.307V209.48C32.0635 209.737 31.9777 209.952 31.806 210.102C31.6344 210.263 31.4199 210.338 31.141 210.338C30.8621 210.338 30.6153 210.252 30.433 210.091C30.2506 209.93 30.1648 209.705 30.1648 209.437V198.463C30.1648 198.184 30.2506 197.97 30.433 197.798C30.6046 197.626 30.8406 197.54 31.1302 197.54C31.4199 197.54 31.6344 197.626 31.806 197.798C31.9777 197.97 32.0635 198.184 32.0635 198.463V199.235C32.3424 198.688 32.7393 198.259 33.2649 197.959C33.7906 197.658 34.402 197.508 35.0886 197.508C35.8716 197.508 36.5796 197.712 37.2018 198.109L37.1911 198.12ZM36.5474 204.685C36.998 204.127 37.2233 203.344 37.2233 202.314C37.2233 201.284 36.998 200.469 36.5367 199.9C36.0755 199.321 35.4426 199.042 34.6273 199.042C33.812 199.042 33.1684 199.321 32.7286 199.89C32.2888 200.448 32.0635 201.252 32.0635 202.282C32.0635 203.312 32.2888 204.116 32.7286 204.674C33.1684 205.232 33.812 205.521 34.6273 205.521C35.4426 205.521 36.0862 205.243 36.5367 204.685H36.5474Z" fill="#FF4469"/>
<path d="M43.4235 206.433C42.737 206.047 42.2113 205.489 41.8466 204.781C41.4819 204.063 41.2888 203.226 41.2888 202.282C41.2888 201.338 41.4712 200.48 41.8466 199.761C42.2113 199.042 42.737 198.495 43.4235 198.109C44.1101 197.723 44.8931 197.53 45.7942 197.53C46.6953 197.53 47.4891 197.723 48.1649 198.109C48.8515 198.495 49.3664 199.053 49.7418 199.761C50.1065 200.48 50.2996 201.316 50.2996 202.282C50.2996 203.247 50.1173 204.063 49.7418 204.781C49.3771 205.5 48.8515 206.047 48.1649 206.433C47.4784 206.819 46.6953 207.013 45.7942 207.013C44.8931 207.013 44.0993 206.819 43.4235 206.433ZM47.7144 204.695C48.1542 204.148 48.3795 203.344 48.3795 202.282C48.3795 201.22 48.1542 200.437 47.7037 199.879C47.2531 199.321 46.6202 199.042 45.7942 199.042C44.9682 199.042 44.3353 199.321 43.8848 199.879C43.4342 200.437 43.209 201.241 43.209 202.282C43.209 203.322 43.4342 204.148 43.8741 204.695C44.3139 205.243 44.9575 205.521 45.7942 205.521C46.6309 205.521 47.2746 205.253 47.7144 204.695Z" fill="#FF4469"/>
<path d="M52.0697 209.115C51.9088 208.954 51.8337 208.74 51.8337 208.471V206.39C51.8337 206.09 51.9088 205.854 52.0697 205.682C52.2306 205.511 52.4345 205.425 52.7026 205.425H52.9601C53.3677 204.781 53.6681 204.02 53.829 203.162C53.9899 202.303 54.0864 201.231 54.0864 199.943V198.731C54.0864 198.442 54.1723 198.206 54.3439 198.034C54.5155 197.852 54.7301 197.766 55.009 197.766H59.6967C59.9864 197.766 60.2116 197.852 60.394 198.023C60.5656 198.195 60.6515 198.409 60.6515 198.688V205.446H61.1342C61.4238 205.446 61.6598 205.532 61.8422 205.704C62.0245 205.875 62.1104 206.09 62.1104 206.369V208.504C62.1104 208.783 62.0353 208.997 61.8744 209.147C61.7134 209.297 61.4989 209.383 61.2307 209.383C60.9625 209.383 60.7373 209.308 60.5871 209.147C60.4262 208.986 60.3511 208.772 60.3511 208.504V206.916H53.5823V208.504C53.5823 208.783 53.5072 208.997 53.357 209.147C53.2068 209.297 52.9923 209.383 52.7241 209.383C52.4559 209.383 52.2306 209.308 52.0805 209.147L52.0697 209.115ZM58.7742 199.203H55.7492V199.933C55.7492 202.539 55.3737 204.374 54.6228 205.436H58.7742V199.203Z" fill="#FF4469"/>
<path d="M71.1426 197.712C71.3035 197.616 71.5287 197.562 71.7969 197.562C72.0973 197.562 72.3333 197.648 72.5049 197.819C72.6765 197.991 72.7624 198.216 72.7624 198.506V206.069C72.7624 206.347 72.6765 206.562 72.5156 206.734C72.3547 206.905 72.1294 206.991 71.8613 206.991C71.5931 206.991 71.3785 206.905 71.2176 206.734C71.046 206.562 70.9602 206.347 70.9602 206.069V200.115L66.4548 206.347C66.2832 206.594 66.1115 206.766 65.9399 206.852C65.7682 206.937 65.5644 206.98 65.307 206.98C65.0173 206.98 64.7814 206.895 64.599 206.723C64.4166 206.551 64.3308 206.337 64.3308 206.058V198.474C64.3308 198.216 64.4166 197.991 64.5883 197.819C64.7599 197.648 64.9744 197.562 65.2533 197.562C65.5323 197.562 65.7361 197.648 65.897 197.819C66.0686 197.991 66.1544 198.216 66.1544 198.474V204.374L70.6169 198.238C70.7886 197.991 70.9602 197.809 71.1211 197.712H71.1426Z" fill="#FF4469"/>
<path d="M76.1735 206.734C76.0018 206.573 75.916 206.358 75.916 206.079V198.463C75.916 198.184 76.0018 197.97 76.1735 197.809C76.3451 197.648 76.5811 197.562 76.8707 197.562C77.1604 197.562 77.3856 197.648 77.5573 197.809C77.7289 197.97 77.8147 198.184 77.8147 198.463V201.456H82.3201V198.463C82.3201 198.184 82.4059 197.97 82.5776 197.809C82.7492 197.648 82.9852 197.562 83.2748 197.562C83.5645 197.562 83.7897 197.648 83.9614 197.809C84.133 197.97 84.2188 198.184 84.2188 198.463L84.2403 206.026C84.2403 206.315 84.1545 206.541 83.9828 206.723C83.8112 206.895 83.5752 206.98 83.2856 206.98C82.9959 206.98 82.7707 206.895 82.5883 206.723C82.4167 206.551 82.3309 206.315 82.3309 206.026V202.958H77.8255V206.09C77.8255 206.369 77.7396 206.583 77.568 206.744C77.3964 206.905 77.1711 206.991 76.8815 206.991C76.5918 206.991 76.3666 206.905 76.1842 206.744L76.1735 206.734Z" fill="#FF4469"/>
<path d="M93.9269 198.442C94.5169 199.053 94.8172 199.986 94.8172 201.231V206.079C94.8172 206.369 94.7314 206.583 94.5705 206.744C94.4096 206.905 94.1843 206.98 93.8947 206.98C93.6051 206.98 93.4012 206.895 93.2403 206.734C93.0794 206.573 92.9936 206.358 92.9936 206.079V205.382C92.7576 205.908 92.4036 206.305 91.9316 206.594C91.4596 206.873 90.9125 207.013 90.2904 207.013C89.6682 207.013 89.1426 206.895 88.6491 206.648C88.1557 206.401 87.7588 206.069 87.4799 205.65C87.2009 205.232 87.0508 204.749 87.0508 204.213C87.04 203.537 87.2117 203.011 87.5549 202.636C87.9089 202.26 88.4775 201.981 89.2606 201.81C90.0436 201.638 91.1378 201.552 92.5431 201.552H92.9722V201.005C92.9722 200.308 92.8327 199.804 92.5431 199.493C92.2534 199.182 91.7922 199.021 91.1593 199.021C90.7195 199.021 90.3118 199.074 89.9256 199.192C89.5395 199.3 89.1104 199.471 88.6491 199.675C88.3166 199.858 88.0698 199.954 87.9411 199.954C87.7588 199.954 87.5979 199.89 87.4799 199.75C87.3619 199.611 87.2975 199.439 87.2975 199.225C87.2975 199.042 87.3511 198.871 87.4584 198.731C87.5657 198.592 87.7373 198.452 87.9733 198.313C88.4131 198.077 88.928 197.884 89.5073 197.744C90.0973 197.605 90.6658 197.53 91.2129 197.53C92.4251 197.53 93.3261 197.841 93.9269 198.442ZM92.3285 204.91C92.7683 204.438 92.9829 203.837 92.9829 203.108V202.625H92.6503C91.6742 202.625 90.9233 202.668 90.3976 202.754C89.872 202.84 89.4966 202.99 89.2713 203.194C89.046 203.397 88.9387 203.698 88.9387 204.084C88.9387 204.535 89.0997 204.899 89.4322 205.189C89.754 205.479 90.1616 205.618 90.6551 205.618C91.3416 205.618 91.9102 205.382 92.3393 204.921L92.3285 204.91Z" fill="#FF4469"/>
<path d="M99.741 204.974C99.9556 205.253 100.074 205.65 100.074 206.187C100.074 207.249 99.7196 208.16 99.0009 208.943C98.8507 209.094 98.6898 209.169 98.5181 209.169C98.3572 209.169 98.2178 209.115 98.1105 209.008C98.0032 208.901 97.9389 208.772 97.9389 208.622C97.9389 208.493 97.9925 208.364 98.1105 208.225C98.4645 207.86 98.6898 207.431 98.7863 206.937C98.4752 206.916 98.2178 206.798 98.0032 206.583C97.7994 206.369 97.6921 206.101 97.6921 205.779C97.6921 205.425 97.7994 205.135 98.0247 204.91C98.2499 204.674 98.5289 204.567 98.8507 204.567C99.2261 204.567 99.5265 204.706 99.741 204.974Z" fill="#FF4469"/>
<path d="M120.498 209.115C120.337 208.954 120.262 208.74 120.262 208.471V206.884H109.46C109.159 206.884 108.923 206.798 108.752 206.637C108.58 206.476 108.494 206.251 108.494 205.961V198.452C108.494 198.173 108.58 197.959 108.752 197.798C108.923 197.637 109.149 197.551 109.438 197.551C109.728 197.551 109.953 197.637 110.125 197.798C110.297 197.959 110.382 198.173 110.382 198.452V205.414H113.611V198.452C113.611 198.173 113.697 197.959 113.858 197.798C114.019 197.637 114.244 197.551 114.534 197.551C114.823 197.551 115.049 197.637 115.231 197.798C115.403 197.959 115.488 198.173 115.488 198.452V205.414H118.717V198.452C118.717 198.173 118.803 197.959 118.975 197.798C119.146 197.637 119.372 197.551 119.661 197.551C119.951 197.551 120.176 197.637 120.348 197.798C120.52 197.959 120.605 198.173 120.605 198.452V205.414H121.088C121.378 205.414 121.603 205.5 121.785 205.672C121.957 205.843 122.043 206.058 122.043 206.337V208.471C122.043 208.75 121.968 208.965 121.807 209.115C121.646 209.265 121.442 209.351 121.174 209.351C120.906 209.351 120.68 209.276 120.53 209.115H120.498Z" fill="#FF4469"/>
<path d="M125.669 206.433C124.982 206.047 124.456 205.489 124.092 204.781C123.727 204.063 123.534 203.226 123.534 202.282C123.534 201.338 123.716 200.48 124.092 199.761C124.456 199.042 124.982 198.495 125.669 198.109C126.355 197.723 127.138 197.53 128.039 197.53C128.94 197.53 129.734 197.723 130.41 198.109C131.097 198.495 131.611 199.053 131.987 199.761C132.352 200.48 132.545 201.316 132.545 202.282C132.545 203.247 132.362 204.063 131.987 204.781C131.622 205.5 131.097 206.047 130.41 206.433C129.723 206.819 128.94 207.013 128.039 207.013C127.138 207.013 126.344 206.819 125.669 206.433ZM129.97 204.695C130.41 204.148 130.635 203.344 130.635 202.282C130.635 201.22 130.41 200.437 129.959 199.879C129.509 199.321 128.876 199.042 128.05 199.042C127.224 199.042 126.591 199.321 126.141 199.879C125.69 200.437 125.465 201.241 125.465 202.282C125.465 203.322 125.69 204.148 126.13 204.695C126.57 205.243 127.213 205.521 128.05 205.521C128.887 205.521 129.53 205.253 129.97 204.695Z" fill="#FF4469"/>
<path d="M146.576 202.539C146.844 202.818 147.166 203.279 147.541 203.923L148.55 205.629C148.636 205.79 148.678 205.951 148.678 206.101C148.678 206.347 148.582 206.562 148.4 206.723C148.217 206.884 147.992 206.98 147.745 206.98C147.423 206.98 147.155 206.819 146.962 206.498L145.653 204.256C145.353 203.762 145.063 203.419 144.795 203.237C144.527 203.054 144.13 202.968 143.626 202.968H142.725V206.101C142.725 206.38 142.639 206.594 142.467 206.755C142.296 206.916 142.06 207.002 141.77 207.002C141.481 207.002 141.255 206.916 141.084 206.755C140.912 206.594 140.826 206.38 140.826 206.101V198.495C140.826 198.206 140.912 197.98 141.084 197.819C141.255 197.658 141.481 197.573 141.77 197.573C142.06 197.573 142.285 197.658 142.467 197.83C142.639 198.002 142.725 198.216 142.725 198.495V201.531H143.798L146.726 197.97C146.941 197.723 147.177 197.594 147.434 197.594C147.649 197.594 147.831 197.669 147.992 197.819C148.153 197.97 148.228 198.152 148.228 198.366C148.228 198.592 148.142 198.806 147.981 198.999L145.525 201.917C145.964 202.067 146.318 202.282 146.587 202.55L146.576 202.539Z" fill="#FF4469"/>
<path d="M158.183 198.12C158.805 198.517 159.287 199.085 159.631 199.804C159.974 200.523 160.146 201.359 160.146 202.314C160.146 203.269 159.974 204.073 159.641 204.781C159.298 205.489 158.826 206.047 158.204 206.433C157.582 206.819 156.874 207.013 156.069 207.013C155.383 207.013 154.771 206.862 154.246 206.573C153.72 206.283 153.323 205.854 153.044 205.307V209.48C153.044 209.737 152.958 209.952 152.787 210.102C152.615 210.263 152.401 210.338 152.122 210.338C151.843 210.338 151.596 210.252 151.414 210.091C151.231 209.93 151.146 209.705 151.146 209.437V198.463C151.146 198.184 151.231 197.97 151.414 197.798C151.585 197.626 151.821 197.54 152.111 197.54C152.401 197.54 152.615 197.626 152.787 197.798C152.958 197.97 153.055 198.184 153.055 198.463V199.235C153.334 198.688 153.731 198.259 154.256 197.959C154.782 197.658 155.383 197.508 156.08 197.508C156.863 197.508 157.571 197.712 158.193 198.109L158.183 198.12ZM157.539 204.685C157.989 204.127 158.215 203.344 158.215 202.314C158.215 201.284 157.989 200.469 157.528 199.9C157.067 199.332 156.434 199.042 155.619 199.042C154.803 199.042 154.16 199.321 153.709 199.89C153.259 200.458 153.044 201.252 153.044 202.282C153.044 203.312 153.269 204.116 153.709 204.674C154.149 205.232 154.793 205.521 155.619 205.521C156.445 205.521 157.078 205.243 157.528 204.685H157.539Z" fill="#FF4469"/>
<path d="M169.564 197.712C169.725 197.616 169.95 197.562 170.219 197.562C170.519 197.562 170.755 197.648 170.927 197.819C171.098 197.991 171.195 198.216 171.195 198.506V206.069C171.195 206.347 171.109 206.562 170.948 206.734C170.787 206.905 170.562 206.991 170.294 206.991C170.025 206.991 169.811 206.905 169.65 206.734C169.478 206.562 169.393 206.347 169.393 206.069V200.115L164.887 206.347C164.716 206.594 164.544 206.766 164.372 206.852C164.201 206.937 163.997 206.98 163.739 206.98C163.45 206.98 163.214 206.895 163.031 206.723C162.849 206.551 162.763 206.337 162.763 206.058V198.474C162.763 198.216 162.849 197.991 163.021 197.819C163.192 197.648 163.407 197.562 163.686 197.562C163.965 197.562 164.168 197.648 164.329 197.819C164.501 197.991 164.587 198.216 164.587 198.474V204.374L169.049 198.238C169.221 197.991 169.393 197.809 169.553 197.712H169.564Z" fill="#FF4469"/>
<path d="M176.548 204.685C176.118 205.725 175.443 206.476 174.531 206.937C174.413 206.991 174.284 207.013 174.134 207.013C173.909 207.013 173.726 206.937 173.565 206.798C173.415 206.659 173.34 206.487 173.34 206.283C173.34 206.133 173.383 205.983 173.469 205.843C173.555 205.704 173.673 205.586 173.823 205.5C174.23 205.264 174.552 204.942 174.788 204.535C175.014 204.127 175.185 203.591 175.282 202.915C175.378 202.239 175.432 201.359 175.432 200.254V198.72C175.432 198.42 175.518 198.184 175.679 198.012C175.84 197.841 176.065 197.755 176.354 197.755H181.31C181.611 197.755 181.847 197.841 182.029 198.002C182.201 198.163 182.287 198.388 182.287 198.678V206.09C182.287 206.369 182.201 206.583 182.029 206.744C181.857 206.905 181.632 206.991 181.343 206.991C181.053 206.991 180.828 206.905 180.645 206.744C180.463 206.583 180.388 206.369 180.388 206.09V199.214H177.18V200.222C177.18 202.153 176.966 203.644 176.537 204.685H176.548Z" fill="#FF4469"/>
<path d="M187.06 206.433C186.373 206.047 185.859 205.489 185.483 204.781C185.118 204.063 184.925 203.226 184.925 202.282C184.925 201.338 185.108 200.48 185.483 199.761C185.848 199.042 186.373 198.495 187.06 198.109C187.747 197.723 188.53 197.53 189.431 197.53C190.332 197.53 191.126 197.723 191.801 198.109C192.488 198.495 193.003 199.053 193.378 199.761C193.754 200.469 193.936 201.316 193.936 202.282C193.936 203.247 193.754 204.063 193.378 204.781C193.003 205.5 192.488 206.047 191.801 206.433C191.115 206.819 190.332 207.013 189.431 207.013C188.53 207.013 187.736 206.819 187.06 206.433ZM191.351 204.695C191.791 204.148 192.016 203.344 192.016 202.282C192.016 201.22 191.791 200.437 191.34 199.879C190.89 199.321 190.257 199.042 189.431 199.042C188.605 199.042 187.972 199.321 187.521 199.879C187.071 200.437 186.845 201.241 186.845 202.282C186.845 203.322 187.071 204.148 187.511 204.695C187.95 205.243 188.594 205.521 189.431 205.521C190.267 205.521 190.911 205.253 191.351 204.695Z" fill="#FF4469"/>
<path d="M206.037 197.798C206.208 197.959 206.305 198.184 206.305 198.474V206.111C206.305 206.358 206.219 206.562 206.058 206.734C205.897 206.905 205.683 206.98 205.425 206.98C205.168 206.98 204.964 206.895 204.792 206.734C204.621 206.573 204.535 206.358 204.535 206.101L204.556 200.694L202.282 204.867C202.196 205.028 202.078 205.157 201.928 205.253C201.778 205.35 201.617 205.393 201.435 205.393C201.252 205.393 201.081 205.35 200.93 205.253C200.78 205.157 200.662 205.028 200.576 204.867L198.302 200.694L198.324 206.101C198.324 206.369 198.238 206.573 198.066 206.734C197.895 206.895 197.691 206.98 197.433 206.98C197.165 206.98 196.961 206.895 196.8 206.734C196.64 206.573 196.554 206.369 196.554 206.111V198.527C196.554 198.238 196.64 198.002 196.811 197.819C196.983 197.637 197.197 197.551 197.476 197.551C197.723 197.551 197.938 197.594 198.12 197.68C198.302 197.766 198.452 197.948 198.581 198.206L201.435 203.558L204.213 198.302C204.363 198.023 204.524 197.83 204.685 197.723C204.846 197.616 205.06 197.551 205.318 197.551C205.618 197.551 205.854 197.637 206.026 197.798H206.037Z" fill="#FF4469"/>
<path d="M216.57 206.433C215.884 206.047 215.369 205.489 214.994 204.781C214.629 204.063 214.436 203.226 214.436 202.282C214.436 201.338 214.618 200.48 214.994 199.761C215.358 199.042 215.884 198.495 216.57 198.109C217.257 197.723 218.04 197.53 218.941 197.53C219.842 197.53 220.636 197.723 221.312 198.109C221.998 198.495 222.513 199.053 222.889 199.761C223.264 200.469 223.447 201.316 223.447 202.282C223.447 203.247 223.264 204.063 222.889 204.781C222.513 205.5 221.998 206.047 221.312 206.433C220.625 206.819 219.842 207.013 218.941 207.013C218.04 207.013 217.246 206.819 216.57 206.433ZM220.861 204.695C221.301 204.148 221.526 203.344 221.526 202.282C221.526 201.22 221.301 200.437 220.851 199.879C220.4 199.321 219.767 199.042 218.941 199.042C218.115 199.042 217.482 199.321 217.032 199.879C216.581 200.437 216.356 201.241 216.356 202.282C216.356 203.322 216.581 204.148 217.021 204.695C217.461 205.243 218.104 205.521 218.941 205.521C219.778 205.521 220.422 205.253 220.861 204.695Z" fill="#FF4469"/>
<path d="M226.332 206.734C226.161 206.573 226.064 206.358 226.064 206.079V198.72C226.064 198.431 226.15 198.195 226.321 198.023C226.493 197.841 226.708 197.755 226.987 197.755H231.664C231.9 197.755 232.093 197.819 232.221 197.959C232.35 198.098 232.425 198.27 232.425 198.484C232.425 198.699 232.361 198.871 232.221 199.01C232.082 199.15 231.9 199.214 231.664 199.214H227.963V206.09C227.963 206.369 227.877 206.583 227.705 206.744C227.534 206.905 227.308 206.991 227.019 206.991C226.729 206.991 226.504 206.905 226.321 206.744L226.332 206.734Z" fill="#FF4469"/>
<path d="M236.105 206.433C235.418 206.047 234.903 205.489 234.528 204.781C234.163 204.063 233.97 203.226 233.97 202.282C233.97 201.338 234.152 200.48 234.528 199.761C234.893 199.042 235.418 198.495 236.105 198.109C236.791 197.723 237.574 197.53 238.475 197.53C239.376 197.53 240.17 197.723 240.846 198.109C241.533 198.495 242.048 199.053 242.423 199.761C242.798 200.469 242.981 201.316 242.981 202.282C242.981 203.247 242.798 204.063 242.423 204.781C242.048 205.5 241.533 206.047 240.846 206.433C240.16 206.819 239.376 207.013 238.475 207.013C237.574 207.013 236.78 206.819 236.105 206.433ZM240.396 204.695C240.835 204.148 241.061 203.344 241.061 202.282C241.061 201.22 240.835 200.437 240.385 199.879C239.934 199.321 239.301 199.042 238.475 199.042C237.649 199.042 237.016 199.321 236.566 199.879C236.115 200.437 235.89 201.241 235.89 202.282C235.89 203.322 236.115 204.148 236.555 204.695C236.995 205.243 237.639 205.521 238.475 205.521C239.312 205.521 239.956 205.253 240.396 204.695Z" fill="#FF4469"/>
<path d="M252.667 198.12C253.29 198.517 253.772 199.085 254.116 199.804C254.459 200.523 254.63 201.359 254.63 202.314C254.63 203.269 254.459 204.073 254.126 204.781C253.783 205.489 253.311 206.047 252.689 206.433C252.067 206.819 251.359 207.013 250.554 207.013C249.868 207.013 249.256 206.862 248.731 206.573C248.205 206.283 247.808 205.854 247.529 205.307V209.48C247.529 209.737 247.443 209.952 247.272 210.102C247.1 210.252 246.875 210.338 246.607 210.338C246.317 210.338 246.081 210.252 245.899 210.091C245.716 209.93 245.63 209.705 245.63 209.437V198.463C245.63 198.184 245.716 197.97 245.888 197.798C246.059 197.626 246.295 197.54 246.585 197.54C246.875 197.54 247.089 197.626 247.261 197.798C247.433 197.97 247.529 198.184 247.529 198.463V199.235C247.808 198.688 248.205 198.259 248.731 197.959C249.256 197.658 249.857 197.508 250.554 197.508C251.337 197.508 252.045 197.712 252.667 198.109V198.12ZM252.024 204.685C252.474 204.127 252.7 203.344 252.7 202.314C252.7 201.284 252.474 200.469 252.013 199.9C251.552 199.332 250.919 199.042 250.104 199.042C249.288 199.042 248.645 199.321 248.194 199.89C247.744 200.458 247.529 201.252 247.529 202.282C247.529 203.312 247.754 204.116 248.194 204.674C248.634 205.232 249.278 205.521 250.104 205.521C250.93 205.521 251.562 205.243 252.013 204.685H252.024Z" fill="#FF4469"/>
<path d="M257.516 206.734C257.344 206.573 257.248 206.358 257.248 206.079V198.463C257.248 198.184 257.334 197.97 257.516 197.809C257.688 197.648 257.924 197.562 258.213 197.562C258.503 197.562 258.728 197.648 258.9 197.809C259.071 197.97 259.157 198.184 259.157 198.463V201.456H263.663V198.463C263.663 198.184 263.748 197.97 263.931 197.809C264.102 197.648 264.338 197.562 264.628 197.562C264.918 197.562 265.143 197.648 265.315 197.809C265.486 197.97 265.572 198.184 265.572 198.463L265.594 206.026C265.594 206.315 265.508 206.541 265.325 206.723C265.143 206.905 264.918 206.98 264.628 206.98C264.338 206.98 264.113 206.895 263.931 206.723C263.759 206.551 263.663 206.315 263.663 206.026V202.958H259.157V206.09C259.157 206.369 259.071 206.583 258.9 206.744C258.728 206.905 258.503 206.991 258.213 206.991C257.924 206.991 257.698 206.905 257.516 206.744V206.734Z" fill="#FF4469"/>
<path d="M276.31 204.781C276.417 204.921 276.482 205.092 276.482 205.307C276.482 205.672 276.256 205.972 275.806 206.229C275.366 206.476 274.894 206.669 274.368 206.809C273.853 206.948 273.349 207.013 272.877 207.013C271.429 207.013 270.281 206.594 269.445 205.747C268.608 204.899 268.189 203.752 268.189 202.293C268.189 201.359 268.372 200.523 268.747 199.804C269.112 199.085 269.638 198.517 270.303 198.12C270.968 197.723 271.729 197.519 272.577 197.519C273.8 197.519 274.776 197.916 275.484 198.699C276.203 199.482 276.557 200.544 276.557 201.885C276.557 202.389 276.331 202.636 275.881 202.636H270.088C270.217 204.567 271.15 205.543 272.888 205.543C273.349 205.543 273.746 205.479 274.089 205.361C274.422 205.232 274.787 205.071 275.162 204.878C275.194 204.856 275.302 204.803 275.473 204.717C275.645 204.631 275.784 204.599 275.892 204.599C276.063 204.599 276.213 204.663 276.321 204.803L276.31 204.781ZM270.871 199.6C270.431 200.061 270.174 200.716 270.088 201.552H274.926C274.883 200.705 274.669 200.051 274.282 199.6C273.886 199.15 273.338 198.914 272.62 198.914C271.901 198.914 271.311 199.15 270.871 199.611V199.6Z" fill="#FF4469"/>
</g>
<defs>
<radialGradient id="paint0_radial_3_116" cx="0" cy="0" r="1" gradientUnits="userSpaceOnUse" gradientTransform="translate(151.736 28.4913) scale(87.6516 87.6515)">
<stop offset="0.05" stop-color="#FFA028"/>
<stop offset="0.75" stop-color="#FB4469"/>
</radialGradient>
<clipPath id="clip0_3_116">
<rect width="304.072" height="210.349" fill="white"/>
</clipPath>
</defs>
</svg>
